<svg width="153" height="47" viewBox="0 0 153 47" fill="none"
    xmlns="http://www.w3.org/2000/svg">
    <g id="Capa_1" clip-path="url(#clip0_386_2061)">
        <path id="Vector" d="M63.8405 29.7089H65.703C65.7656 29.7089 65.7891 29.6662 65.7891 29.6041V22.6302C65.7891 22.568 65.8517 22.4826 65.9143 22.5447C67.0372 23.0262 68.1797 23.3019 69.4475 23.3019C72.3273 23.3019 74.7375 21.7681 74.7375 18.9141C74.7375 15.7223 71.6895 15.0078 69.064 15.0078H63.8366C63.774 15.0078 63.7505 15.0505 63.7505 15.1127C63.7505 17.7182 63.731 27.713 63.731 29.6041C63.731 29.6662 63.774 29.7089 63.8366 29.7089H63.8405ZM65.7891 15.8698C65.7891 15.8077 65.8321 15.765 65.8947 15.765H68.6884C71.2904 15.765 72.6051 16.8367 72.6051 18.9568C72.6051 21.077 71.2943 22.6729 68.8175 22.6729C67.9059 22.6729 66.912 22.4826 65.8556 22.0865C65.8125 22.0632 65.793 22.0438 65.793 22.0011V15.8698H65.7891Z" fill="black"/>
        <path id="Vector_2" d="M84.4098 27.0219C84.4098 23.4728 77.4686 23.3447 77.4686 20.9955C77.4686 20.1568 78.3137 19.652 79.0571 19.5471C80.051 19.3801 81.1544 19.5704 81.976 20.1335C82.5473 20.4907 82.9503 20.9722 83.2673 21.543C83.2673 21.5624 83.3103 21.6478 83.3729 21.8381C83.3925 21.9002 83.4355 21.9002 83.4981 21.8808L83.6664 21.7954C83.7094 21.776 83.729 21.7527 83.7094 21.6905C83.5411 21.209 83.3299 20.7664 83.0129 20.3664C82.1873 19.2753 80.8101 18.8559 79.4562 18.9181C77.8677 18.9802 75.6061 19.718 75.6061 21.6284C75.6061 25.1348 82.4847 25.1775 82.4847 27.5927C82.4847 27.8024 82.4651 27.95 82.3986 28.0548C82.1247 28.8741 81.1935 29.1459 80.4109 29.2119C78.5915 29.3789 76.5804 28.645 75.7352 26.9443L75.61 26.587C75.5865 26.5249 75.5239 26.5016 75.4613 26.5443L75.2696 26.6686C75.25 26.6919 75.2266 26.7307 75.2266 26.7734C75.6296 27.8878 76.3926 28.7887 77.5116 29.2741C78.5915 29.7556 79.7536 29.9031 80.9392 29.7556C82.4612 29.5886 84.4098 28.8314 84.4098 27.0258V27.0219Z" fill="black"/>
        <path id="Vector_3" d="M86.9922 16.5846C87.7552 16.7088 88.4321 16.0177 88.3265 15.2605C88.2639 14.6936 87.8413 14.2936 87.3092 14.2315C86.5031 14.1266 85.8693 14.8411 85.9749 15.5556C86.0375 16.0798 86.4601 16.4992 86.9922 16.5846Z" fill="black"/>
        <path id="Vector_4" d="M86.2096 18.9995C86.147 18.9995 86.1235 19.0422 86.1235 19.1044C86.1235 21.8574 86.1431 27.713 86.1431 29.6273C86.1431 29.6895 86.1666 29.7127 86.2292 29.7127H88.0486C88.1112 29.7127 88.1542 29.6933 88.1542 29.6273V19.1044C88.1542 19.0422 88.1112 18.9995 88.0486 18.9995H86.2057H86.2096Z" fill="black"/>
        <path id="Vector_5" d="M100.24 28.2178C100.26 28.1557 100.217 28.0936 100.115 28.0082C100.092 27.9887 100.053 27.9654 100.01 27.9887C99.098 28.5557 98.1041 28.7848 97.1729 28.7848C94.3988 28.7848 92.0316 26.7268 92.0316 23.8067C92.0316 21.3721 93.448 19.5859 96.0539 19.5859C97.9163 19.5859 99.2075 20.4906 99.861 22.0011C99.8844 22.0633 99.9236 22.0633 99.9862 22.0439L100.178 21.9196C100.221 21.9002 100.24 21.8769 100.221 21.8148C99.6497 19.8616 97.7676 18.8947 95.8191 18.8947C92.6654 18.8326 90.083 21.2478 90.083 24.3775C90.083 27.7363 92.8767 29.8176 95.9247 29.8176C96.093 29.8176 96.2651 29.7982 96.4099 29.7982C96.8951 29.7361 97.3216 29.7128 97.7442 29.5691C98.1041 29.4837 98.4211 29.3595 98.7615 29.2119C99.0158 29.0876 100.135 28.4547 100.244 28.2256L100.24 28.2178Z" fill="black"/>
        <path id="Vector_6" d="M108.579 14.336C108.771 14.1457 108.853 13.9593 108.853 13.7263C108.853 13.3264 108.45 13.0352 107.964 13.0352C107.605 13.0352 107.268 13.2021 107.076 13.6215L105.531 16.9415H106.082L108.579 14.336Z" fill="black"/>
        <path id="Vector_7" d="M107.201 29.8135C110.418 29.8135 113.211 27.6507 113.211 24.3734C113.211 21.0962 110.418 18.8906 107.201 18.8906C103.985 18.8906 101.172 21.1156 101.172 24.3734C101.172 27.6313 103.942 29.8135 107.201 29.8135ZM103.203 23.6201C103.371 21.1001 104.873 19.0421 107.307 19.209C109.933 19.376 111.368 22.0863 111.2 25.0064C111.032 27.5264 109.549 29.5223 107.201 29.3553C104.494 29.1884 103.034 26.5402 103.203 23.6201Z" fill="black"/>
        <path id="Vector_8" d="M116.854 29.709C116.917 29.709 116.94 29.6662 116.94 29.6041V14.041C116.94 13.9789 116.921 13.9556 116.854 13.9556C116.537 13.9556 115.755 13.9556 115.015 13.9789C114.953 13.9789 114.929 13.9983 114.929 14.0643V29.6041C114.929 29.6662 114.972 29.709 115.035 29.709H116.854Z" fill="black"/>
        <path id="Vector_9" d="M124.683 18.8945C121.424 18.8945 118.654 21.1195 118.654 24.3773C118.654 27.6352 121.424 29.8174 124.683 29.8174C127.943 29.8174 130.693 27.6546 130.693 24.3773C130.693 21.1001 127.9 18.8945 124.683 18.8945ZM128.682 25.0064C128.514 27.5265 127.031 29.5223 124.683 29.3554C121.976 29.1884 120.516 26.5402 120.685 23.6202C120.853 21.1001 122.355 19.0421 124.789 19.2091C127.414 19.376 128.85 22.0864 128.682 25.0064Z" fill="black"/>
        <path id="Vector_10" d="M137.74 28.7419L135.052 28.8467C133.593 28.9322 133.147 28.6798 133.147 28.2798C133.147 27.8799 133.569 27.3363 134.395 26.6645C134.395 26.6451 134.415 26.6024 134.438 26.5791C134.461 26.5558 134.458 26.5596 134.481 26.5596C135.221 26.9596 136.152 27.146 137.251 27.146C140.89 27.146 142.604 25.0453 142.604 23.0494C142.604 22.001 142.138 21.0535 141.184 20.1954C141.078 20.11 140.992 19.9857 140.886 19.9236C140.8 19.9236 140.8 19.7333 140.886 19.7333H142.897L144.443 18.6849C144.549 18.6849 144.549 18.4946 144.443 18.4946C142.964 18.7664 140.252 19.1664 139.258 19.1664H139.153C138.582 18.9373 138.01 18.9567 137.247 18.9567C133.796 18.9567 132 21.0574 132 23.0533C132 24.3153 132.615 25.5306 133.882 26.2878C133.953 26.3422 133.953 26.4056 133.882 26.4781C132.759 27.5498 132 28.4934 132 29.1457V29.2312C132 30.0078 132.826 30.2835 133.503 30.3883C133.988 30.4931 134.454 30.4931 134.943 30.4931H137.928C138.605 30.5786 139.348 30.6407 140.021 30.8698C141.015 31.2697 141.864 31.8755 141.864 33.0326C141.864 34.2907 140.131 35.3236 137.928 35.3236C135.264 35.3236 133.041 33.9995 133.992 31.2503C133.992 31.1649 133.992 31.0601 133.886 31.1649C132.532 31.3319 131.789 31.9648 131.789 33.1375C131.789 34.9431 133.992 35.9954 137.06 35.9954C140.319 35.9954 143.007 34.4849 143.007 32.2793C143.007 30.3689 141.567 28.6875 137.736 28.7497L137.74 28.7419ZM134.778 20.7623C135.858 19.2518 137.443 18.8519 138.906 19.9236C140.831 21.1623 140.788 24.292 139.266 25.8025C138.781 26.3073 138.229 26.5596 137.639 26.5596C135.944 26.8315 134.168 25.2588 134.105 23.3251C134 22.4864 134.274 21.5389 134.782 20.7623H134.778Z" fill="black"/>
        <path id="Vector_11" d="M151.541 19.2091C150.672 18.7276 149.443 18.58 148.493 18.7276C147.096 18.9179 145.867 19.4615 144.811 20.3429C144.787 20.3623 144.768 20.4051 144.768 20.4284V21.3952C144.768 21.5001 144.893 21.5428 144.959 21.4574C145.805 20.176 147.585 19.1897 149.127 19.4848C150.566 19.7566 150.926 21.1661 150.989 22.4475C150.989 22.4669 150.966 22.5096 150.946 22.5329C148.724 24.1483 143.496 23.9619 143.496 27.111C143.496 28.7924 144.85 29.7554 146.732 29.7554C148.34 29.7554 149.843 29.1263 151.028 28.0352L151.071 28.0119V29.6078C151.071 29.6699 151.095 29.7126 151.157 29.7126H152.895C152.957 29.7126 153 29.6699 153 29.6078V23.2863C153 21.9427 152.957 19.9469 151.541 19.213V19.2091ZM151.012 27.1266C151.012 27.1498 151.012 27.1693 150.993 27.1887C150.042 28.4468 148.833 28.9749 147.648 28.9749C146.462 28.9749 145.679 28.3225 145.679 27.0644C145.679 24.5443 148.77 24.4822 150.864 23.2435C150.926 23.1814 151.012 23.2435 151.012 23.3251V27.1266Z" fill="black"/>
        <path id="Vector_12" d="M66.8025 36.0538C67.4637 35.817 67.7611 35.3471 67.7611 34.8151C67.7611 33.658 66.5051 33.3784 65.5426 33.3784H63.7701C63.7466 33.3784 63.7271 33.394 63.7271 33.4211V39.0865C63.7271 39.1097 63.7427 39.1292 63.7701 39.1292H65.8478C67.3933 39.1292 68.0898 38.4962 68.0898 37.5449C68.0898 36.8149 67.6946 36.279 66.7986 36.0577L66.8025 36.0538ZM64.537 33.7124C64.537 33.6891 64.5526 33.6696 64.58 33.6696H65.39C66.4151 33.6696 66.9277 34.0463 66.9277 34.8113C66.9277 35.5762 66.4151 35.9451 65.39 35.9451H64.58C64.5566 35.9451 64.537 35.9296 64.537 35.9024V33.7085V33.7124ZM65.7186 38.8263H64.5761C64.5526 38.8263 64.5331 38.8108 64.5331 38.7836V36.2713C64.5331 36.248 64.5487 36.2402 64.5761 36.2402H65.7186C66.6851 36.2402 67.2563 36.6906 67.2563 37.5138C67.2563 38.337 66.7203 38.8263 65.7186 38.8263Z" fill="black"/>
        <path id="Vector_13" d="M70.7073 34.8964C69.5921 34.8964 68.5161 35.7002 68.5161 37.0399C68.5161 38.3795 69.6078 39.1678 70.8012 39.1678C71.4311 39.1678 72.018 38.962 72.4797 38.562C72.4875 38.5387 72.4875 38.5115 72.4797 38.5038L72.4367 38.461C72.4367 38.461 72.4132 38.4455 72.3936 38.4533C72.0376 38.6746 71.6659 38.7562 71.3098 38.7562C70.3512 38.7562 69.4552 38.0922 69.2987 37.1292C69.2908 37.1059 69.2987 37.0865 69.3339 37.0865H72.7262C72.7497 37.0865 72.7693 37.0709 72.7693 37.0437V37.001C72.7458 35.7624 71.885 34.8887 70.7073 34.8887V34.8964ZM72.0571 36.8108C72.0571 36.8341 72.0493 36.8418 72.0258 36.8418H69.3104C69.2869 36.8418 69.2791 36.8263 69.2791 36.7991C69.2791 35.8944 69.7995 35.1644 70.7777 35.1644C71.7559 35.1644 72.2176 36.0109 72.0611 36.8069L72.0571 36.8108Z" fill="black"/>
        <path id="Vector_14" d="M75.8409 34.955C75.6335 34.9239 75.434 35.0055 75.2696 35.1103C74.8823 35.3666 74.6162 35.7355 74.2915 36.0539C74.268 36.0772 74.2249 36.0616 74.2249 36.0306V34.9705C74.2249 34.9472 74.2171 34.9395 74.1936 34.9395H73.4815C73.458 34.9395 73.4385 34.9472 73.4385 34.9705V39.0865C73.4385 39.1098 73.4541 39.1292 73.4815 39.1292H74.1936C74.2171 39.1292 74.2249 39.1137 74.2249 39.0865V36.4344C74.2249 36.4344 74.2249 36.4189 74.2328 36.4111C74.538 36.1238 75.1249 35.4753 75.5905 35.4753C75.7626 35.4753 75.9231 35.5646 76.0209 35.8209C76.0444 35.852 76.0952 35.8442 76.0952 35.8054V35.1414C76.0952 35.1414 76.0952 35.1258 76.0874 35.1181C76.0287 35.0288 75.9465 34.9783 75.8409 34.9628V34.955Z" fill="black"/>
        <path id="Vector_15" d="M78.3645 34.8964C77.2493 34.8964 76.1733 35.7002 76.1733 37.0399C76.1733 38.3795 77.265 39.1678 78.4584 39.1678C79.0883 39.1678 79.6752 38.962 80.137 38.562C80.1448 38.5387 80.1448 38.5115 80.137 38.5038L80.0939 38.461C80.0939 38.461 80.0704 38.4455 80.0509 38.4533C79.6948 38.6746 79.3231 38.7562 78.967 38.7562C78.0084 38.7562 77.1124 38.0922 76.9559 37.1292C76.9481 37.1059 76.9559 37.0865 76.9872 37.0865H80.3795C80.403 37.0865 80.4226 37.0709 80.4226 37.0437V37.001C80.3991 35.7624 79.5383 34.8887 78.3606 34.8887L78.3645 34.8964ZM79.7144 36.8108C79.7144 36.8341 79.7065 36.8418 79.6831 36.8418H76.9676C76.9442 36.8418 76.9363 36.8263 76.9363 36.7991C76.9363 35.8944 77.4567 35.1644 78.4349 35.1644C79.4131 35.1644 79.8748 36.0109 79.7183 36.8069L79.7144 36.8108Z" fill="black"/>
        <path id="Vector_16" d="M83.6273 34.9395C83.0638 34.9395 82.4104 35.1686 81.9409 35.5219C81.9174 35.5452 81.8822 35.5219 81.8822 35.487V34.9705C81.8822 34.9472 81.8665 34.9395 81.8391 34.9395H81.1427C81.1192 34.9395 81.0996 34.9472 81.0996 34.9705C81.0996 35.6034 81.0918 37.9333 81.0918 39.0865C81.0918 39.1098 81.1074 39.1292 81.1348 39.1292H81.8391C81.8626 39.1292 81.8822 39.1137 81.8822 39.0865V35.9335C81.8822 35.9335 81.8822 35.918 81.89 35.9102C82.2461 35.5413 82.8095 35.3122 83.2477 35.3122C84.1007 35.3122 84.1163 36.05 84.1163 36.7101V39.0904C84.1163 39.1137 84.1242 39.1331 84.1476 39.1331H84.8598C84.8832 39.1331 84.9028 39.1176 84.9028 39.0904V36.6596C84.9028 35.386 84.6289 34.9433 83.6273 34.9433V34.9395Z" fill="black"/>
        <path id="Vector_17" d="M86.3582 33.0756C86.0452 33.0329 85.7948 33.3125 85.8378 33.5921C85.8613 33.7979 86.0296 33.961 86.233 33.9959C86.5304 34.0464 86.7965 33.7746 86.7534 33.4795C86.7299 33.2581 86.5617 33.1028 86.3582 33.0756Z" fill="black"/>
        <path id="Vector_18" d="M86.6477 34.9395H85.9278C85.9043 34.9395 85.8965 34.955 85.8965 34.9822C85.8965 36.0578 85.9043 38.3487 85.9043 39.0982C85.9043 39.1215 85.9121 39.1292 85.9356 39.1292H86.6477C86.6712 39.1292 86.6908 39.1215 86.6908 39.0982V34.9822C86.6908 34.9589 86.6751 34.9395 86.6477 34.9395Z" fill="black"/>
        <path id="Vector_19" d="M91.3233 38.4537C90.9673 38.6751 90.5799 38.7644 90.216 38.7644C89.1322 38.7644 88.2049 37.9606 88.2049 36.819C88.2049 35.8676 88.7605 35.1687 89.7778 35.1687C90.5056 35.1687 91.0103 35.522 91.2685 36.1123C91.2764 36.1356 91.292 36.1356 91.3194 36.1278L91.3938 36.0773C91.3938 36.0773 91.4172 36.0618 91.4094 36.0346C91.1864 35.2697 90.4508 34.893 89.6878 34.893C88.4553 34.8697 87.4458 35.8133 87.4458 37.0364C87.4458 38.3489 88.5375 39.1643 89.7308 39.1643C89.7974 39.1643 89.8639 39.1565 89.9226 39.1565C90.1143 39.1332 90.2786 39.1255 90.443 39.0672C90.5838 39.0362 90.709 38.9857 90.8381 38.9275C90.936 38.877 91.3742 38.6323 91.4172 38.543C91.4251 38.5197 91.4094 38.4926 91.3664 38.4615C91.3585 38.4537 91.3429 38.446 91.3233 38.4537Z" fill="black"/>
        <path id="Vector_20" d="M93.9724 34.8964C92.8573 34.8964 91.7812 35.7002 91.7812 37.0399C91.7812 38.3795 92.8729 39.1678 94.0663 39.1678C94.6962 39.1678 95.2832 38.962 95.7449 38.562C95.7527 38.5387 95.7527 38.5115 95.7449 38.5038L95.7018 38.461C95.7018 38.461 95.6783 38.4455 95.6588 38.4533C95.3027 38.6746 94.931 38.7562 94.5749 38.7562C93.6163 38.7562 92.7203 38.0922 92.5638 37.1292C92.556 37.1059 92.5638 37.0865 92.599 37.0865H95.9914C96.0148 37.0865 96.0344 37.0709 96.0344 37.0437V37.001C96.0109 35.7624 95.1501 34.8887 93.9724 34.8887V34.8964ZM95.3223 36.8108C95.3223 36.8341 95.3145 36.8418 95.291 36.8418H92.5755C92.5521 36.8418 92.5442 36.8263 92.5442 36.7991C92.5442 35.8944 93.0646 35.1644 94.0428 35.1644C95.021 35.1644 95.4827 36.0109 95.3262 36.8069L95.3223 36.8108Z" fill="black"/>
        <path id="Vector_21" d="M102.299 35.9801C102.96 35.7432 103.257 35.2734 103.257 34.7414C103.257 33.5843 102.001 33.3047 101.039 33.3047H99.2662C99.2427 33.3047 99.2231 33.3202 99.2231 33.3474V39.0127C99.2231 39.036 99.2388 39.0554 99.2662 39.0554H101.344C102.889 39.0554 103.586 38.4225 103.586 37.4712C103.586 36.7412 103.191 36.2053 102.295 35.984L102.299 35.9801ZM100.033 33.6386C100.033 33.6153 100.049 33.5959 100.076 33.5959H100.886C101.911 33.5959 102.424 33.9726 102.424 34.7375C102.424 35.5025 101.911 35.8714 100.886 35.8714H100.076C100.053 35.8714 100.033 35.8558 100.033 35.8286V33.6347V33.6386ZM101.215 38.7526H100.072C100.049 38.7526 100.029 38.737 100.029 38.7098V36.1975C100.029 36.1742 100.045 36.1665 100.072 36.1665H101.215C102.181 36.1665 102.752 36.6169 102.752 37.4401C102.752 38.2633 102.216 38.7526 101.215 38.7526Z" fill="black"/>
        <path id="Vector_22" d="M107.159 34.9432C106.818 34.7529 106.341 34.6985 105.965 34.7529C105.417 34.8267 104.94 35.0402 104.525 35.3858C104.517 35.3936 104.51 35.4091 104.51 35.4169V35.7935C104.51 35.8363 104.56 35.8518 104.584 35.8168C104.917 35.3159 105.609 34.9315 106.216 35.0441C106.779 35.1528 106.92 35.7003 106.943 36.2013C106.943 36.209 106.936 36.2246 106.928 36.2323C106.059 36.8652 104.017 36.7915 104.017 38.0224C104.017 38.6786 104.545 39.0592 105.284 39.0592C105.914 39.0592 106.501 38.8145 106.963 38.3874L106.979 38.3796V39.0048C106.979 39.0281 106.986 39.0475 107.014 39.0475H107.691C107.714 39.0475 107.734 39.032 107.734 39.0048V36.5313C107.734 36.0071 107.718 35.2266 107.162 34.9393L107.159 34.9432ZM106.951 38.0379C106.951 38.0379 106.951 38.0535 106.943 38.0612C106.572 38.5544 106.098 38.7602 105.636 38.7602C105.175 38.7602 104.866 38.5039 104.866 38.0146C104.866 37.0283 106.075 37.005 106.892 36.5197C106.916 36.4964 106.951 36.5197 106.951 36.5507V38.0379Z" fill="black"/>
        <path id="Vector_23" d="M109.201 35.6423C109.201 35.3123 109.533 35.1181 109.823 35.0754C110.21 35.0094 110.641 35.0832 110.965 35.3045C111.188 35.4443 111.345 35.6346 111.47 35.8559C111.47 35.8637 111.486 35.8986 111.513 35.9724C111.521 35.9957 111.537 35.9957 111.564 35.9879L111.63 35.9569C111.63 35.9569 111.654 35.9413 111.646 35.9141C111.58 35.7239 111.497 35.553 111.372 35.3977C111.051 34.9706 110.511 34.8075 109.983 34.8308C109.361 34.8541 108.477 35.1414 108.477 35.8908C108.477 37.2615 111.165 37.2771 111.165 38.2245C111.165 38.3061 111.157 38.3643 111.134 38.407C111.028 38.7293 110.66 38.8342 110.355 38.8575C109.643 38.9235 108.856 38.6361 108.528 37.9721L108.477 37.8323C108.469 37.8091 108.446 37.8013 108.418 37.8168L108.344 37.8673C108.344 37.8673 108.328 37.8906 108.328 37.91C108.485 38.3449 108.782 38.6983 109.22 38.8885C109.643 39.0788 110.097 39.1332 110.562 39.0788C111.157 39.0128 111.92 38.7177 111.92 38.011C111.92 36.6247 109.205 36.5743 109.205 35.654L109.201 35.6423Z" fill="black"/>
        <path id="Vector_24" d="M114.546 38.2787C114.522 38.2709 114.503 38.2709 114.495 38.2942C114.362 38.632 114.131 38.7873 113.9 38.7873C113.47 38.7873 113.388 38.4495 113.388 38.0884V35.1567C113.388 35.1334 113.403 35.1218 113.431 35.1218H114.276C114.299 35.1218 114.319 35.1062 114.319 35.0791V34.9082C114.319 34.8849 114.303 34.8733 114.276 34.8733H113.431C113.407 34.8733 113.388 34.8577 113.388 34.8305V34.0423C113.388 34.019 113.372 34.0112 113.345 34.0112H113.294C113.27 34.0112 113.262 34.019 113.251 34.0345C113.094 34.6092 112.648 34.7645 112.026 34.8733C112.002 34.8733 111.995 34.881 111.995 34.9082V35.0791C111.995 35.1024 112.01 35.1218 112.038 35.1218H112.566C112.589 35.1218 112.601 35.1295 112.601 35.1567V37.9408C112.601 38.632 112.922 39.0669 113.654 39.0669C114.241 39.0669 114.514 38.7873 114.679 38.3602C114.687 38.3369 114.679 38.3175 114.655 38.3097L114.55 38.2787H114.546Z" fill="black"/>
        <path id="Vector_25" d="M115.481 32.998C115.168 32.9553 114.917 33.2349 114.96 33.5144C114.984 33.7202 115.152 33.8833 115.356 33.9183C115.653 33.9687 115.919 33.6969 115.876 33.4018C115.853 33.1805 115.684 33.0252 115.481 32.998Z" fill="black"/>
        <path id="Vector_26" d="M115.77 34.8618H115.05C115.027 34.8618 115.019 34.8773 115.019 34.9045C115.019 35.9801 115.027 38.2711 115.027 39.0205C115.027 39.0438 115.035 39.0516 115.058 39.0516H115.77C115.794 39.0516 115.813 39.0438 115.813 39.0205V34.9045C115.813 34.8812 115.798 34.8618 115.77 34.8618Z" fill="black"/>
        <path id="Vector_27" d="M120.645 32.8076H119.933C119.91 32.8076 119.902 32.8154 119.902 32.8387V35.0714C119.902 35.1064 119.871 35.1297 119.843 35.1064C119.546 34.885 119.057 34.7763 118.693 34.7763C117.327 34.7763 116.568 35.7548 116.568 36.9275C116.568 38.1002 117.37 39.0476 118.662 39.0476C119.057 39.0476 119.546 38.9156 119.843 38.6787C119.867 38.6554 119.902 38.6787 119.902 38.702V39.0049C119.902 39.0282 119.91 39.0476 119.933 39.0476H120.645C120.669 39.0476 120.688 39.0321 120.688 39.0049V32.8387C120.688 32.8154 120.673 32.8076 120.645 32.8076ZM119.902 38.2671C119.902 38.2671 119.902 38.2827 119.894 38.2904C119.663 38.5778 119.346 38.7253 118.959 38.7253C117.899 38.7253 117.339 37.6653 117.339 36.6712C117.339 35.7432 117.852 35.0442 118.771 35.0442C119.194 35.0442 119.624 35.2151 119.898 35.4791C119.898 35.4869 119.906 35.4869 119.906 35.5102V38.2594L119.902 38.2671Z" fill="black"/>
        <path id="Vector_28" d="M124.499 34.9432C124.159 34.7529 123.682 34.6985 123.306 34.7529C122.758 34.8267 122.281 35.0402 121.866 35.3858C121.858 35.3936 121.85 35.4091 121.85 35.4169V35.7935C121.85 35.8363 121.901 35.8518 121.925 35.8168C122.257 35.3159 122.95 34.9315 123.556 35.0441C124.12 35.1528 124.261 35.7003 124.284 36.2013C124.284 36.209 124.276 36.2246 124.269 36.2323C123.4 36.8652 121.357 36.7915 121.357 38.0224C121.357 38.6786 121.886 39.0592 122.625 39.0592C123.255 39.0592 123.842 38.8145 124.304 38.3874L124.319 38.3796V39.0048C124.319 39.0281 124.327 39.0475 124.351 39.0475H125.028C125.051 39.0475 125.071 39.032 125.071 39.0048V36.5313C125.071 36.0071 125.055 35.2266 124.499 34.9393V34.9432ZM124.292 38.0379C124.292 38.0379 124.292 38.0535 124.284 38.0612C123.912 38.5544 123.439 38.7602 122.977 38.7602C122.516 38.7602 122.206 38.5039 122.206 38.0146C122.206 37.0283 123.416 37.005 124.233 36.5197C124.257 36.4964 124.292 36.5197 124.292 36.5507V38.0379Z" fill="black"/>
        <path id="Vector_29" d="M126.546 35.6423C126.546 35.3123 126.878 35.1181 127.168 35.0754C127.555 35.0094 127.986 35.0832 128.311 35.3045C128.534 35.4443 128.69 35.6346 128.815 35.8559C128.815 35.8637 128.831 35.8986 128.858 35.9724C128.866 35.9957 128.882 35.9957 128.909 35.9879L128.976 35.9569C128.976 35.9569 128.999 35.9413 128.991 35.9141C128.925 35.7239 128.843 35.553 128.717 35.3977C128.397 34.9706 127.857 34.8075 127.328 34.8308C126.706 34.8541 125.822 35.1414 125.822 35.8908C125.822 37.2615 128.51 37.2771 128.51 38.2245C128.51 38.3061 128.502 38.3643 128.475 38.407C128.369 38.7293 128.001 38.8342 127.696 38.8575C126.984 38.9235 126.198 38.6361 125.869 37.9721L125.818 37.8323C125.81 37.8091 125.787 37.8013 125.759 37.8168L125.685 37.8673C125.685 37.8673 125.669 37.8906 125.669 37.91C125.826 38.3449 126.123 38.6983 126.562 38.8885C126.984 39.0788 127.438 39.1332 127.904 39.0788C128.498 39.0128 129.261 38.7177 129.261 38.011C129.261 36.6247 126.546 36.5743 126.546 35.654V35.6423Z" fill="black"/>
        <path id="Vector_30" d="M47.5984 4.28336e-05C37.8987 -0.151395 30.9653 8.34076 27.6043 16.5456L27.1426 17.7571L28.4025 17.5784C32.8943 17.0271 37.5739 14.3439 38.7947 9.75806L38.3017 9.64157C37.973 10.6162 37.3783 11.5481 36.6936 12.3403C34.8898 14.4293 32.2683 15.536 29.5646 15.9243C30.2923 14.3866 31.1649 12.88 32.1196 11.4627C35.3945 6.54292 40.5007 2.159 46.628 1.98815C46.6828 3.61901 46.538 5.30036 46.2094 6.92734C45.4346 10.7443 43.7482 14.5885 40.8959 17.2989C36.4079 21.3527 30.398 22.7856 24.388 23.2942C20.2483 23.6709 15.9365 23.7486 11.9963 25.4027C8.01708 27.0647 4.65603 30.1944 2.7427 34.0735C1.25586 36.9353 0.758943 40.1776 0.59852 43.3578C0.59852 44.3557 0.164206 46.3477 1.64322 46.4603C11.0534 46.736 18.0924 38.6593 21.1052 30.5477L21.5239 29.4449L20.3774 29.6197C15.8973 30.1478 11.2177 32.8076 9.98128 37.3741L10.4704 37.4905C11.7655 33.7784 15.5178 31.6505 19.3053 31.1224C16.1047 37.7507 10.3021 44.3091 2.51576 44.5033C2.54707 43.3888 2.64097 41.6648 2.78574 40.4688C3.68567 32.2951 10.1182 26.0589 18.378 25.2474C20.3853 24.9639 22.4473 24.8436 24.521 24.63C30.7892 24.0864 37.1122 22.5798 41.8897 18.39C46.6085 13.9206 48.6979 6.63223 48.5766 0.217492L48.5609 0.0194579L47.6023 0.0116919L47.5984 4.28336e-05Z" fill="black"/>
        <path id="Vector_31" d="M27.6945 29.8334C27.5497 29.8528 27.1428 29.9344 27.0058 29.9577C26.8611 29.9926 26.6811 30.0004 26.5833 30.1246C26.3524 41.7853 35.7469 47.7419 46.7378 46.9264L47.9038 46.7478L47.8334 45.6412C47.2934 33.8834 39.1823 28.0628 27.6984 29.8334H27.6945ZM28.9622 36.951C27.8979 34.9862 27.5615 32.7573 27.1115 30.5984H27.1193C37.449 29.4179 44.9849 34.1358 45.2862 44.5578C38.9788 45.1441 31.8224 42.9852 28.9622 36.951Z" fill="black"/>
        <path id="Vector_32" d="M20.2054 17.1664C20.3502 17.147 20.7571 17.0655 20.8941 17.0422C21.0388 17.0072 21.2188 16.9994 21.3166 16.8752C21.5475 5.2145 12.1569 -0.742045 1.166 0.0733879L0 0.252007L0.0704294 1.35867C0.610388 13.1164 8.7215 18.9371 20.2054 17.1664ZM18.9377 10.0489C20.0019 12.0137 20.3384 14.2425 20.7884 16.4015H20.7806C10.4549 17.5858 2.91891 12.8679 2.61763 2.44203C8.92497 1.85569 16.0814 4.01465 18.9416 10.0489H18.9377Z" fill="black"/>
        <path id="Vector_33" d="M46.2094 21.5664C45.2625 21.5664 44.4956 22.3275 44.4956 23.2672C44.4956 24.2069 45.2625 24.9679 46.2094 24.9679C47.1563 24.9679 47.9232 24.2069 47.9232 23.2672C47.9232 22.3275 47.1563 21.5664 46.2094 21.5664Z" fill="black"/>
        <path id="Vector_34" d="M1.86271 24.7736C2.80959 24.7736 3.57649 24.0125 3.57649 23.0728C3.57649 22.1331 2.80959 21.3721 1.86271 21.3721C0.915823 21.3721 0.148926 22.1331 0.148926 23.0728C0.148926 24.0125 0.915823 24.7736 1.86271 24.7736Z" fill="black"/>
    </g>
    <defs>
        <clipPath id="clip0_386_2061">
            <rect width="153" height="47" fill="white"/>
        </clipPath>
    </defs>
</svg>
