<svg width="69" height="68" viewBox="0 0 69 68" fill="none"
    xmlns="http://www.w3.org/2000/svg">
    <g id="Capa_1" clip-path="url(#clip0_370_2173)">
        <path id="Vector" d="M26.0994 36.3677C28.9505 35.9592 31.8795 35.7858 34.8251 35.4781C43.7287 34.6948 52.7101 32.5239 59.4962 26.4869C66.1989 20.047 69.1667 9.54512 68.9944 0.302129L68.9722 0.0167821L67.6105 0.00559204C53.8328 -0.212614 43.9844 12.0237 39.2102 23.846L38.5544 25.5917L40.344 25.3343C46.7243 24.5398 53.3715 20.6736 55.1055 14.0659L54.4052 13.898C53.9384 15.3024 53.0936 16.6452 52.121 17.7866C49.5588 20.7967 45.8351 22.3913 41.9947 22.9508C43.0284 20.7352 44.2678 18.5643 45.6239 16.5221C50.2758 9.43322 57.5287 3.11643 66.2322 2.87025C66.31 5.22016 66.1044 7.64281 65.6375 9.98712C64.5371 15.487 62.1417 21.0261 58.09 24.9314C51.7152 30.7727 43.1785 32.8372 34.6417 33.5702C28.7616 34.1129 22.6369 34.2248 17.0402 36.6083C11.3879 39.0029 6.61376 43.5125 3.896 49.102C1.78403 53.2255 1.07819 57.8974 0.850325 62.4797C0.850325 63.9176 0.23341 66.7878 2.33426 66.9501C15.6952 67.3474 25.6992 55.7097 29.9787 44.0217L30.5734 42.4327L28.945 42.6845C22.5813 43.4454 15.9342 47.278 14.1779 53.8577L14.8726 54.0256C16.7123 48.6767 22.0422 45.6107 27.4221 44.8497C22.8759 54.4005 14.6337 63.8505 3.57364 64.1302C3.61811 62.5244 3.75149 60.0402 3.95713 58.317C5.23542 46.5394 14.3724 37.5538 26.1049 36.3845L26.0994 36.3677ZM2.41762 64.1246C2.37872 64.1246 2.37872 64.1246 2.41762 64.1246V64.1246Z" fill="#68589A"/>
        <path id="Vector_2" d="M39.338 42.9866C39.1324 43.0146 38.5543 43.1321 38.3598 43.1656C38.1542 43.216 37.8985 43.2272 37.7596 43.4062C37.4317 60.2081 50.7759 68.7909 66.3878 67.6159L68.044 67.3585L67.944 65.764C67.177 48.8222 55.6557 40.4353 39.3436 42.9866H39.338ZM41.1387 53.2423C39.627 50.4112 39.149 47.1997 38.5099 44.0888H38.521C53.1936 42.3879 63.8979 49.1859 64.3258 64.2029C55.3667 65.0478 45.2015 61.937 41.1387 53.2423Z" fill="#68589A"/>
        <path id="Vector_3" d="M28.7004 24.7352C28.9061 24.7073 29.4841 24.5898 29.6786 24.5562C29.8843 24.5058 30.1399 24.4947 30.2789 24.3156C30.6068 7.51375 17.2681 -1.06903 1.65622 0.105929L0 0.363301L0.10004 1.95788C0.867016 18.8996 12.3883 27.2866 28.7004 24.7352ZM26.8997 14.4796C28.4114 17.3106 28.8894 20.5222 29.5286 23.633H29.5174C14.8504 25.3395 4.14611 18.5415 3.71816 3.5189C12.6773 2.67405 22.8425 5.78488 26.9053 14.4796H26.8997Z" fill="#68589A"/>
        <path id="Vector_4" d="M65.6374 35.976C66.9819 35.976 68.0718 34.8788 68.0718 33.5254C68.0718 32.172 66.9819 31.0748 65.6374 31.0748C64.293 31.0748 63.2031 32.172 63.2031 33.5254C63.2031 34.8788 64.293 35.976 65.6374 35.976Z" fill="#68589A"/>
        <path id="Vector_5" d="M2.64549 35.6963C3.99048 35.6963 5.07981 34.5996 5.07981 33.2456C5.07981 31.8917 3.99048 30.795 2.64549 30.795C1.30051 30.795 0.211182 31.8917 0.211182 33.2456C0.211182 34.5996 1.30051 35.6963 2.64549 35.6963Z" fill="#68589A"/>
    </g>
    <defs>
        <clipPath id="clip0_370_2173">
            <rect width="69" height="67.7222" fill="white"/>
        </clipPath>
    </defs>
</svg>