<svg width="101" height="31" viewBox="0 0 101 31" fill="none" xmlns="http://www.w3.org/2000/svg">
<path d="M42.197 9.81031C42.197 9.76981 42.2113 9.74178 42.2525 9.74178H45.682C47.4031 9.74178 49.4033 10.2059 49.4033 12.2774C49.4033 14.1308 47.8203 15.126 45.931 15.126C45.0983 15.126 44.348 14.9484 43.6119 14.6354C43.5707 14.5949 43.5279 14.6494 43.5279 14.6899V19.2159C43.5279 19.2564 43.5136 19.2845 43.4724 19.2845H42.2509C42.2097 19.2845 42.1812 19.2564 42.1812 19.2159C42.1812 17.9886 42.1954 11.5002 42.1954 9.80875L42.197 9.81031ZM45.5154 14.7179C47.1398 14.7179 48.0011 13.7227 48.0011 12.3054C48.0011 10.8881 47.1398 10.2339 45.433 10.2339H43.6008C43.5596 10.2339 43.5311 10.262 43.5311 10.3025V14.2834C43.5311 14.3114 43.5453 14.3239 43.5723 14.3379C44.2655 14.5964 44.919 14.7195 45.5154 14.7195V14.7179Z" fill="black"/>
<path d="M49.876 17.2255C49.9173 17.1974 49.9585 17.2114 49.9728 17.2535L50.0569 17.4856C50.6121 18.5898 51.9318 19.068 53.1247 18.9574C53.6386 18.9169 54.2493 18.7393 54.4302 18.2082C54.4714 18.1397 54.4857 18.0447 54.4857 17.9092C54.4857 16.3408 49.9728 16.3143 49.9728 14.0373C49.9728 12.796 51.4575 12.3194 52.4997 12.2789C53.388 12.2384 54.2906 12.511 54.8331 13.2196C55.0409 13.4782 55.1804 13.7647 55.2915 14.0794C55.3058 14.1198 55.2915 14.1339 55.2629 14.1479L55.1519 14.2024C55.1106 14.2164 55.0821 14.2164 55.0678 14.1744C55.0266 14.0513 54.998 13.9968 54.998 13.9843C54.7902 13.6168 54.5253 13.3022 54.151 13.0701C53.6101 12.7025 52.8867 12.5795 52.2348 12.6885C51.7494 12.7571 51.1942 13.0841 51.1942 13.6292C51.1942 15.1571 55.7483 15.2381 55.7483 17.5416C55.7483 18.7144 54.4714 19.205 53.4705 19.314C52.6932 19.4091 51.9286 19.314 51.2212 19.001C50.4852 18.6879 49.9855 18.1008 49.7222 17.3781C49.7222 17.3501 49.7364 17.3236 49.7507 17.3096L49.876 17.227V17.2255Z" fill="black"/>
<path d="M58.3161 9.9053C58.3859 10.3959 57.9417 10.846 57.4405 10.765C57.0931 10.7105 56.8155 10.438 56.7742 10.0969C56.7045 9.63274 57.1216 9.17017 57.6483 9.2387C57.9957 9.27919 58.2733 9.53774 58.3145 9.90686L58.3161 9.9053ZM56.9281 12.3319H58.1368C58.1781 12.3319 58.2066 12.3599 58.2066 12.4004V19.2299C58.2066 19.2704 58.1781 19.2845 58.1368 19.2845H56.9424C56.9011 19.2845 56.8869 19.2704 56.8869 19.2299C56.8869 17.9886 56.8726 14.1868 56.8726 12.4004C56.8726 12.3599 56.8869 12.3319 56.9281 12.3319Z" fill="black"/>
<path d="M66.1193 14.1588C66.1336 14.1993 66.1193 14.2133 66.0907 14.2273L65.9654 14.3099C65.9242 14.3239 65.8956 14.3239 65.8813 14.2818C65.4515 13.3006 64.6044 12.7134 63.383 12.7134C61.6746 12.7134 60.7451 13.8722 60.7451 15.453C60.7451 17.3485 62.2996 18.6833 64.119 18.6833C64.7297 18.6833 65.3817 18.5337 65.9797 18.1662C66.0067 18.1522 66.0352 18.1662 66.0495 18.1802C66.1193 18.2347 66.1462 18.2752 66.1336 18.3172C66.0638 18.4668 65.3277 18.8764 65.1612 18.9574C64.9391 19.0524 64.7297 19.1349 64.495 19.1894C64.2174 19.2844 63.9398 19.2985 63.6209 19.339C63.5242 19.339 63.4131 19.353 63.3021 19.353C61.3034 19.353 59.4697 18.0042 59.4697 15.8222C59.4697 13.7912 61.1638 12.2228 63.2323 12.2649C64.5092 12.2649 65.7449 12.891 66.1193 14.1603V14.1588Z" fill="black"/>
<path d="M70.7017 12.2633C72.813 12.2633 74.6451 13.7087 74.6451 15.8206C74.6451 17.9326 72.813 19.3514 70.7017 19.3514C68.5904 19.3514 66.7456 17.9481 66.7456 15.8206C66.7456 13.6931 68.5634 12.2633 70.7017 12.2633ZM73.3254 16.2302C73.4364 14.3348 72.4926 12.5764 70.7715 12.4674C69.1741 12.3583 68.1891 13.6947 68.0781 15.33C67.967 17.2255 68.9251 18.9418 70.7017 19.0524C72.2435 19.1614 73.2143 17.8656 73.3254 16.2302ZM70.6176 8.84154C70.7429 8.56898 70.965 8.45996 71.2014 8.45996C71.5202 8.45996 71.7851 8.64997 71.7851 8.91007C71.7851 9.05959 71.7296 9.18263 71.6043 9.30567L69.9657 10.9955H69.604L70.6176 8.84154Z" fill="black"/>
<path d="M75.7716 9.12812C75.7716 9.08762 75.7859 9.0736 75.8271 9.0736C76.3125 9.05959 76.8265 9.05959 77.0343 9.05959C77.0755 9.05959 77.0898 9.0736 77.0898 9.1141V19.2159C77.0898 19.2564 77.0755 19.2844 77.0343 19.2844H75.8398C75.7986 19.2844 75.77 19.2564 75.77 19.2159V9.12812H75.7716Z" fill="black"/>
<path d="M82.1719 12.2633C84.2832 12.2633 86.1153 13.7087 86.1153 15.8206C86.1153 17.9326 84.2832 19.3514 82.1719 19.3514C80.0606 19.3514 78.2158 17.9481 78.2158 15.8206C78.2158 13.6931 80.0337 12.2633 82.1719 12.2633ZM84.7956 16.2302C84.9066 14.3348 83.9628 12.5764 82.2417 12.4674C80.6444 12.3583 79.6593 13.6946 79.5483 15.33C79.4372 17.2255 80.3953 18.9418 82.1719 19.0524C83.7138 19.1614 84.6845 17.8656 84.7956 16.2302Z" fill="black"/>
<path d="M95.1395 12.1278L94.1258 12.8085H92.8077C92.7522 12.8085 92.7522 12.9315 92.8077 12.9315C92.8775 12.972 92.933 13.0545 93.0012 13.109C93.6262 13.6682 93.9323 14.2818 93.9323 14.9624C93.9323 16.2583 92.8077 17.6211 90.4188 17.6211C89.697 17.6211 89.0863 17.498 88.6009 17.2395C88.5914 17.2395 88.5819 17.2442 88.5724 17.2535C88.5581 17.2675 88.5438 17.294 88.5438 17.308C88.0029 17.7441 87.7238 18.0992 87.7238 18.3578C87.7238 18.6163 88.0156 18.7814 88.9737 18.7253L90.7376 18.6568C93.2502 18.6163 94.1956 19.7065 94.1956 20.9478C94.1956 22.3792 92.4317 23.3604 90.2935 23.3604C88.2805 23.3604 86.8354 22.6798 86.8354 21.507C86.8354 20.7438 87.3224 20.3342 88.2107 20.2252C88.2805 20.1566 88.2805 20.2252 88.2805 20.2797C87.6555 22.0661 89.1133 22.9243 90.8629 22.9243C92.3064 22.9243 93.4454 22.2561 93.4454 21.4385C93.4454 20.6893 92.8902 20.2937 92.2366 20.0352C91.7925 19.8856 91.3071 19.8436 90.8629 19.7891H88.9055C88.5867 19.7891 88.2805 19.7891 87.9617 19.7206C87.5175 19.652 86.9766 19.476 86.9766 18.9714V18.9169C86.9766 18.4948 87.4763 17.8812 88.2123 17.1865C88.2589 17.1408 88.2589 17.0998 88.2123 17.0635C87.3795 16.5729 86.9766 15.7817 86.9766 14.964C86.9766 13.6697 88.1568 12.3054 90.4204 12.3054C90.92 12.3054 91.296 12.2914 91.6703 12.4424H91.7401C92.3921 12.4424 94.1703 12.1839 95.1411 12.0063C95.2108 12.0063 95.2108 12.1294 95.1411 12.1294L95.1395 12.1278ZM91.7385 16.7489C92.7379 15.7677 92.7649 13.7352 91.5022 12.9315C90.5441 12.2369 89.5019 12.4954 88.7945 13.4766C88.4614 13.9812 88.2805 14.5949 88.3503 15.14C88.3916 16.3953 89.559 17.417 90.6694 17.2395C91.058 17.2395 91.4197 17.0759 91.7385 16.7489Z" fill="black"/>
<path d="M99.4303 14.5684C99.3891 13.7367 99.1527 12.824 98.2073 12.6465C97.1937 12.4549 96.0278 13.0966 95.4726 13.9283C95.4314 13.9828 95.3473 13.9563 95.3473 13.8878V13.2617C95.3473 13.2477 95.3616 13.2212 95.3759 13.2072C96.069 12.634 96.8749 12.2805 97.7917 12.1574C98.4167 12.0624 99.2225 12.1574 99.792 12.4705C100.722 12.9471 100.75 14.2429 100.75 15.1151V19.219C100.75 19.2595 100.722 19.2876 100.68 19.2876H99.5413C99.5001 19.2876 99.4858 19.2595 99.4858 19.219V18.1833L99.4589 18.1973C98.6816 18.906 97.6949 19.3156 96.6401 19.3156C95.4044 19.3156 94.5161 18.6879 94.5161 17.5977C94.5161 15.5527 97.9456 15.6758 99.4033 14.626C99.4176 14.612 99.4319 14.5855 99.4319 14.5715L99.4303 14.5684ZM97.2365 18.8079C98.0138 18.8079 98.8053 18.4668 99.4303 17.6491C99.4446 17.6351 99.4446 17.6211 99.4446 17.6086V15.1416C99.4446 15.087 99.3891 15.0466 99.3478 15.087C97.9725 15.8907 95.9453 15.9328 95.9453 17.5681C95.9453 18.3858 96.445 18.8094 97.2365 18.8094V18.8079Z" fill="black"/>
<path d="M43.3722 21.6659C44.0019 21.6659 44.8268 21.8465 44.8268 22.5988C44.8268 22.9446 44.6317 23.2498 44.197 23.404C44.7839 23.5473 45.0441 23.8946 45.0441 24.3681C45.0441 24.9864 44.5888 25.3976 43.5736 25.3976H42.2111C42.1952 25.3976 42.1841 25.3867 42.1841 25.3711V21.6939C42.1841 21.6783 42.1952 21.6674 42.2111 21.6674H43.3722V21.6659ZM42.7091 23.3075C42.7091 23.323 42.7202 23.3339 42.7361 23.3339H43.2675C43.9401 23.3339 44.2779 23.0894 44.2779 22.5988C44.2779 22.1082 43.9416 21.8574 43.2675 21.8574H42.7361C42.7202 21.8574 42.7091 21.8683 42.7091 21.8839V23.3075ZM43.4848 25.2045C44.1415 25.2045 44.4937 24.8899 44.4937 24.351C44.4937 23.8121 44.1193 23.5239 43.4848 23.5239H42.7361C42.7202 23.5239 42.7091 23.5286 42.7091 23.5457V25.1764C42.7091 25.192 42.7202 25.2029 42.7361 25.2029H43.4848V25.2045Z" fill="black"/>
<path d="M46.7592 22.6518C47.5301 22.6518 48.0948 23.2171 48.1106 24.0223V24.0488C48.1106 24.0644 48.0995 24.0753 48.0837 24.0753H45.8582C45.836 24.0753 45.8312 24.0862 45.836 24.1018C45.9391 24.7248 46.526 25.1577 47.1557 25.1577C47.3889 25.1577 47.6332 25.1048 47.8664 24.9599C47.8775 24.9553 47.8886 24.9599 47.8933 24.9646L47.9203 24.9911C47.9203 24.9911 47.9251 25.0129 47.9203 25.0285C47.6157 25.2901 47.2303 25.4225 46.8179 25.4225C46.0358 25.4225 45.3188 24.8945 45.3188 24.0426C45.3188 23.1906 46.0247 22.6518 46.7576 22.6518H46.7592ZM45.8423 23.9149H47.6237C47.6395 23.9149 47.6459 23.9102 47.6459 23.8931C47.749 23.376 47.4175 22.8278 46.8052 22.8278C46.1929 22.8278 45.8233 23.3028 45.8233 23.8884C45.8233 23.904 45.828 23.9149 45.8455 23.9149H45.8423Z" fill="black"/>
<path d="M48.5513 22.7C48.5513 22.6845 48.5624 22.6782 48.5782 22.6782H49.0446C49.0605 22.6782 49.0668 22.6829 49.0668 22.7V23.3884C49.0668 23.4103 49.0938 23.4212 49.1096 23.404C49.3206 23.1953 49.4951 22.9555 49.7505 22.7904C49.8583 22.7218 49.99 22.6673 50.1248 22.6891C50.1946 22.7 50.2501 22.7312 50.2882 22.7904C50.293 22.795 50.293 22.8013 50.293 22.806V23.2374C50.293 23.2639 50.2597 23.2701 50.2438 23.2483C50.1788 23.0832 50.0757 23.024 49.9614 23.024C49.6569 23.024 49.2714 23.4445 49.0716 23.6314C49.0668 23.6361 49.0668 23.6423 49.0668 23.647V25.368C49.0668 25.3836 49.062 25.3945 49.0446 25.3945H48.5782C48.5624 25.3945 48.5513 25.3836 48.5513 25.368V22.6969V22.7Z" fill="black"/>
<path d="M51.7811 22.6518C52.552 22.6518 53.1168 23.2171 53.1326 24.0223V24.0488C53.1326 24.0644 53.1215 24.0753 53.1056 24.0753H50.8801C50.8579 24.0753 50.8532 24.0862 50.8579 24.1018C50.961 24.7248 51.548 25.1577 52.1777 25.1577C52.4109 25.1577 52.6552 25.1048 52.8883 24.9599C52.8994 24.9553 52.9105 24.9599 52.9153 24.9646L52.9423 24.9911C52.9423 24.9911 52.947 25.0129 52.9423 25.0285C52.6377 25.2901 52.2523 25.4225 51.8398 25.4225C51.0578 25.4225 50.3408 24.8945 50.3408 24.0426C50.3408 23.1906 51.0467 22.6518 51.7795 22.6518H51.7811ZM50.8643 23.9149H52.6456C52.6615 23.9149 52.6678 23.9102 52.6678 23.8931C52.771 23.376 52.4394 22.8278 51.8271 22.8278C51.2148 22.8278 50.8452 23.3028 50.8452 23.8884C50.8452 23.904 50.85 23.9149 50.8675 23.9149H50.8643Z" fill="black"/>
<path d="M53.605 22.6782H54.0602C54.0761 22.6782 54.0872 22.6829 54.0872 22.7V23.0365C54.0872 23.0583 54.1094 23.0738 54.1253 23.0583C54.4346 22.8293 54.8629 22.6798 55.2325 22.6798C55.8892 22.6798 56.0684 22.9679 56.0684 23.7934V25.3711C56.0684 25.3867 56.0573 25.3976 56.0414 25.3976H55.5751C55.5592 25.3976 55.5529 25.3867 55.5529 25.3711V23.8245C55.5529 23.3978 55.5418 22.9181 54.9834 22.9181C54.6963 22.9181 54.3267 23.0676 54.0935 23.3075C54.0888 23.3121 54.0888 23.3184 54.0888 23.323V25.3696C54.0888 25.3851 54.0777 25.396 54.0618 25.396H53.6002C53.5843 25.396 53.5732 25.3851 53.5732 25.3696C53.5732 24.6235 53.578 23.1097 53.578 22.6985C53.578 22.6829 53.5891 22.6767 53.605 22.6767V22.6782Z" fill="black"/>
<path d="M57.2868 21.7297C57.3138 21.9213 57.1409 22.0973 56.9442 22.0661C56.8094 22.0443 56.6999 21.9384 56.6841 21.8045C56.6571 21.6238 56.8205 21.4416 57.0267 21.4681C57.1631 21.4836 57.271 21.5849 57.2868 21.7297ZM56.7444 22.6782H57.2171C57.2329 22.6782 57.244 22.6891 57.244 22.7047V25.3758C57.244 25.3914 57.2329 25.3976 57.2171 25.3976H56.7507C56.7348 25.3976 56.7285 25.3929 56.7285 25.3758C56.7285 24.8899 56.7237 23.404 56.7237 22.7047C56.7237 22.6891 56.7285 22.6782 56.7459 22.6782H56.7444Z" fill="black"/>
<path d="M60.3373 23.3931C60.342 23.4087 60.3373 23.4149 60.3262 23.4196L60.277 23.4523C60.2611 23.457 60.25 23.457 60.2437 23.4414C60.0756 23.0583 59.744 22.8278 59.2666 22.8278C58.5988 22.8278 58.2355 23.281 58.2355 23.8993C58.2355 24.6407 58.843 25.1624 59.5553 25.1624C59.7948 25.1624 60.0502 25.1032 60.2834 24.9599C60.2945 24.9553 60.3056 24.9599 60.3103 24.9646C60.3373 24.9864 60.3484 25.002 60.3436 25.0176C60.3167 25.0768 60.028 25.2356 59.9629 25.2683C59.8757 25.3057 59.7948 25.3384 59.7028 25.3587C59.5933 25.396 59.4855 25.4007 59.3602 25.4178C59.3221 25.4178 59.2793 25.4225 59.2348 25.4225C58.4528 25.4225 57.7358 24.8945 57.7358 24.0426C57.7358 23.2483 58.3973 22.6346 59.2063 22.6518C59.706 22.6518 60.1898 22.8963 60.3357 23.3931H60.3373Z" fill="black"/>
<path d="M62.0199 22.6518C62.7908 22.6518 63.3555 23.2171 63.3714 24.0223V24.0488C63.3714 24.0644 63.3603 24.0753 63.3444 24.0753H61.1189C61.0967 24.0753 61.0919 24.0862 61.0967 24.1018C61.1998 24.7248 61.7867 25.1577 62.4165 25.1577C62.6496 25.1577 62.8939 25.1048 63.1271 24.9599C63.1382 24.9553 63.1493 24.9599 63.1541 24.9646L63.181 24.9911C63.181 24.9911 63.1858 25.0129 63.181 25.0285C62.8765 25.2901 62.491 25.4225 62.0786 25.4225C61.2966 25.4225 60.5796 24.8945 60.5796 24.0426C60.5796 23.1906 61.2855 22.6518 62.0183 22.6518H62.0199ZM61.1031 23.9149H62.8844C62.9003 23.9149 62.9066 23.9102 62.9066 23.8931C63.0097 23.376 62.6782 22.8278 62.0659 22.8278C61.4536 22.8278 61.084 23.3028 61.084 23.8884C61.084 23.904 61.0888 23.9149 61.1062 23.9149H61.1031Z" fill="black"/>
<path d="M66.6598 21.616C67.2895 21.616 68.1144 21.7967 68.1144 22.549C68.1144 22.8947 67.9193 23.2 67.4846 23.3542C68.0715 23.4975 68.3317 23.8448 68.3317 24.3183C68.3317 24.9366 67.8764 25.3478 66.8612 25.3478H65.4986C65.4828 25.3478 65.4717 25.3369 65.4717 25.3213V21.6441C65.4717 21.6285 65.4828 21.6176 65.4986 21.6176H66.6598V21.616ZM65.9967 23.2576C65.9967 23.2732 66.0078 23.2841 66.0237 23.2841H66.5551C67.2277 23.2841 67.5655 23.0396 67.5655 22.549C67.5655 22.0584 67.2292 21.8076 66.5551 21.8076H66.0237C66.0078 21.8076 65.9967 21.8185 65.9967 21.8341V23.2576ZM66.7724 25.1546C67.4291 25.1546 67.7813 24.84 67.7813 24.3011C67.7813 23.7622 67.4069 23.4741 66.7724 23.4741H66.0237C66.0078 23.4741 65.9967 23.4788 65.9967 23.4959V25.1266C65.9967 25.1422 66.0078 25.1531 66.0237 25.1531H66.7724V25.1546Z" fill="black"/>
<path d="M70.5306 23.5021C70.5147 23.1766 70.4227 22.82 70.0531 22.7499C69.6565 22.6751 69.2013 22.9259 68.984 23.2514C68.9681 23.2732 68.9348 23.2623 68.9348 23.2358V22.9913C68.9348 22.9913 68.9396 22.9757 68.9459 22.9695C69.2172 22.7452 69.5328 22.6066 69.8897 22.5599C70.134 22.5225 70.4497 22.5599 70.6717 22.6829C71.035 22.8698 71.0461 23.376 71.0461 23.7171V25.3213C71.0461 25.3369 71.035 25.3478 71.0191 25.3478H70.5734C70.5575 25.3478 70.5512 25.3369 70.5512 25.3213V24.9163L70.5401 24.921C70.2355 25.1982 69.8501 25.3587 69.4376 25.3587C68.9538 25.3587 68.6064 25.1141 68.6064 24.6874C68.6064 23.8884 69.9468 23.9351 70.5179 23.5255C70.5226 23.5208 70.529 23.5099 70.529 23.5037L70.5306 23.5021ZM69.6724 25.1593C69.977 25.1593 70.2863 25.0254 70.5306 24.7061C70.5353 24.7014 70.5353 24.6952 70.5353 24.6905V23.7264C70.5353 23.7046 70.5131 23.689 70.4973 23.7046C69.9595 24.0192 69.1664 24.0348 69.1664 24.6749C69.1664 24.9942 69.3615 25.1593 69.6708 25.1593H69.6724Z" fill="black"/>
<path d="M71.4966 24.5425C71.5124 24.5316 71.5299 24.5379 71.5346 24.5534L71.5679 24.6438C71.7853 25.0752 72.3008 25.2621 72.7671 25.22C72.9686 25.2045 73.2065 25.1344 73.2779 24.9272C73.2938 24.9008 73.3001 24.8634 73.3001 24.8104C73.3001 24.1968 71.5362 24.1874 71.5362 23.2965C71.5362 22.8122 72.1168 22.6253 72.5244 22.6081C72.8718 22.5926 73.2256 22.6985 73.4365 22.9757C73.5174 23.0769 73.573 23.1891 73.6158 23.3121C73.6205 23.3277 73.6158 23.3339 73.6047 23.3386L73.5619 23.3604C73.546 23.3651 73.5349 23.3651 73.5285 23.3495C73.5127 23.3012 73.5016 23.281 73.5016 23.2747C73.4207 23.1299 73.3176 23.0084 73.1701 22.9181C72.9575 22.7748 72.6767 22.7265 72.4213 22.7686C72.231 22.795 72.0137 22.9228 72.0137 23.1361C72.0137 23.7326 73.795 23.7654 73.795 24.6656C73.795 25.1235 73.2954 25.3166 72.9051 25.3587C72.6006 25.396 72.3024 25.3587 72.0264 25.2356C71.7393 25.1126 71.5426 24.8836 71.4395 24.6017C71.4395 24.5908 71.4442 24.5799 71.4506 24.5752L71.4997 24.5425H71.4966Z" fill="black"/>
<path d="M74.6736 22.0957C74.6784 22.0848 74.6847 22.0802 74.7006 22.0802H74.7339C74.7497 22.0802 74.7608 22.0848 74.7608 22.102V22.6128C74.7608 22.6284 74.7719 22.6393 74.7878 22.6393H75.3414C75.3573 22.6393 75.3684 22.644 75.3684 22.6611V22.7732C75.3684 22.7888 75.3573 22.7997 75.3414 22.7997H74.7878C74.7719 22.7997 74.7608 22.8044 74.7608 22.8215V24.7248C74.7608 24.9599 74.8148 25.178 75.0971 25.178C75.2494 25.178 75.4017 25.0768 75.4873 24.8587C75.4921 24.8431 75.5032 24.8431 75.5207 24.8478L75.5905 24.8696C75.6063 24.8743 75.6127 24.8852 75.6063 24.9023C75.4985 25.1795 75.3192 25.3602 74.9337 25.3602C74.4563 25.3602 74.2437 25.0783 74.2437 24.6298V22.8231C74.2437 22.8075 74.239 22.8013 74.2215 22.8013H73.8741C73.8583 22.8013 73.8472 22.7904 73.8472 22.7748V22.6627C73.8472 22.6471 73.8519 22.6409 73.8694 22.6409C74.277 22.5723 74.5705 22.4711 74.672 22.0973L74.6736 22.0957Z" fill="black"/>
<path d="M76.3948 21.6799C76.4217 21.8715 76.2488 22.0475 76.0521 22.0163C75.9173 21.9945 75.8078 21.8886 75.792 21.7546C75.765 21.574 75.9284 21.3918 76.1346 21.4182C76.271 21.4338 76.3789 21.535 76.3948 21.6799ZM75.8523 22.6284H76.325C76.3408 22.6284 76.3519 22.6393 76.3519 22.6549V25.326C76.3519 25.3415 76.3408 25.3478 76.325 25.3478H75.8586C75.8427 25.3478 75.8364 25.3431 75.8364 25.326C75.8364 24.84 75.8316 23.3542 75.8316 22.6549C75.8316 22.6393 75.8364 22.6284 75.8538 22.6284H75.8523Z" fill="black"/>
<path d="M78.9946 22.7888C79.0104 22.8044 79.0327 22.7888 79.0327 22.767V21.317C79.0327 21.3014 79.0374 21.2952 79.0549 21.2952H79.5212C79.5371 21.2952 79.5482 21.2999 79.5482 21.317V25.3197C79.5482 25.3353 79.5371 25.3462 79.5212 25.3462H79.0549C79.039 25.3462 79.0327 25.3353 79.0327 25.3197V25.1219C79.0327 25.1063 79.0104 25.0892 78.9946 25.1063C78.7995 25.2605 78.4791 25.3462 78.2189 25.3462C77.3718 25.3462 76.8452 24.7435 76.8452 23.9709C76.8452 23.1984 77.3449 22.5739 78.2395 22.5739C78.4791 22.5739 78.7995 22.6424 78.9946 22.7873V22.7888ZM78.414 25.1391C78.6694 25.1391 78.8756 25.0425 79.0279 24.8571C79.0327 24.8525 79.0327 24.8462 79.0327 24.8416V23.0551C79.0327 23.0396 79.0279 23.0396 79.0279 23.0333C78.8486 22.8636 78.5663 22.7514 78.2903 22.7514C77.6875 22.7514 77.3512 23.2047 77.3512 23.8074C77.3512 24.4522 77.7208 25.1391 78.4156 25.1391H78.414Z" fill="black"/>
<path d="M81.91 23.5021C81.8941 23.1766 81.8021 22.82 81.4325 22.7499C81.0359 22.6751 80.5807 22.9259 80.3634 23.2514C80.3475 23.2732 80.3142 23.2623 80.3142 23.2358V22.9913C80.3142 22.9913 80.3189 22.9757 80.3253 22.9695C80.5965 22.7452 80.9122 22.6066 81.2691 22.5599C81.5134 22.5225 81.8291 22.5599 82.0511 22.6829C82.4144 22.8698 82.4255 23.376 82.4255 23.7171V25.3213C82.4255 25.3369 82.4144 25.3478 82.3985 25.3478H81.9528C81.9369 25.3478 81.9306 25.3369 81.9306 25.3213V24.9163L81.9195 24.921C81.6149 25.1982 81.2295 25.3587 80.817 25.3587C80.3332 25.3587 79.9858 25.1141 79.9858 24.6874C79.9858 23.8884 81.3262 23.9351 81.8973 23.5255C81.902 23.5208 81.9084 23.5099 81.9084 23.5037L81.91 23.5021ZM81.0518 25.1593C81.3564 25.1593 81.6657 25.0254 81.91 24.7061C81.9147 24.7014 81.9147 24.6952 81.9147 24.6905V23.7264C81.9147 23.7046 81.8925 23.689 81.8766 23.7046C81.3389 24.0192 80.5458 24.0348 80.5458 24.6749C80.5458 24.9942 80.7409 25.1593 81.0502 25.1593H81.0518Z" fill="black"/>
<path d="M82.876 24.5425C82.8918 24.5316 82.9093 24.5379 82.914 24.5534L82.9473 24.6438C83.1646 25.0752 83.6802 25.2621 84.1465 25.22C84.348 25.2045 84.5859 25.1344 84.6573 24.9272C84.6732 24.9008 84.6795 24.8634 84.6795 24.8104C84.6795 24.1968 82.9156 24.1874 82.9156 23.2965C82.9156 22.8122 83.4962 22.6253 83.9038 22.6081C84.2512 22.5926 84.605 22.6985 84.8159 22.9757C84.8968 23.0769 84.9523 23.1891 84.9952 23.3121C84.9999 23.3277 84.9952 23.3339 84.9841 23.3386L84.9412 23.3604C84.9254 23.3651 84.9143 23.3651 84.9079 23.3495C84.8921 23.3012 84.881 23.281 84.881 23.2747C84.8001 23.1299 84.697 23.0084 84.5494 22.9181C84.3369 22.7748 84.0561 22.7265 83.8007 22.7686C83.6104 22.795 83.3931 22.9228 83.3931 23.1361C83.3931 23.7326 85.1744 23.7654 85.1744 24.6656C85.1744 25.1235 84.6748 25.3166 84.2845 25.3587C83.98 25.396 83.6818 25.3587 83.4058 25.2356C83.1186 25.1126 82.922 24.8836 82.8188 24.6017C82.8188 24.5908 82.8236 24.5799 82.8299 24.5752L82.8791 24.5425H82.876Z" fill="black"/>
<path d="M12.4243 16.3844C13.7424 16.1991 15.0923 16.1228 16.4533 15.9842C20.5665 15.6306 24.7145 14.6541 27.8489 11.9331C30.9453 9.03156 32.3158 4.30149 32.2349 0.136791C32.2349 0.136791 32.2254 0.00752059 32.2238 0.00752059L31.5941 0.00129067C25.23 -0.0968306 20.6807 5.41665 18.4758 10.7417L18.1728 11.5266L18.9993 11.4098C21.9465 11.0516 25.0175 9.30879 25.8169 6.33245L25.4934 6.25613C25.2776 6.88847 24.889 7.49433 24.4385 8.0083C23.2567 9.36486 21.5357 10.0829 19.7607 10.3352C20.2381 9.33839 20.8107 8.35717 21.4373 7.43982C23.5851 4.24543 26.9368 1.39991 30.9548 1.28933C30.9913 2.34841 30.8961 3.43865 30.6804 4.49462C30.1712 6.97413 29.0672 9.46921 27.1938 11.2261C24.2497 13.8566 20.3047 14.788 16.3629 15.1182C13.6457 15.3627 10.819 15.4126 8.23339 16.4857C5.62401 17.565 3.41754 19.596 2.16282 22.1144C1.18886 23.9725 0.860508 26.0766 0.755816 28.1418C0.752643 28.7882 0.470291 30.0809 1.44266 30.1541C7.61475 30.3317 12.2355 25.0907 14.2104 19.8249L14.4848 19.1085L13.7313 19.2222C10.7904 19.5664 7.72262 21.2905 6.91046 24.2544L7.23088 24.3291C8.07952 21.9197 10.543 20.5351 13.0302 20.1925C10.9316 24.4958 7.12301 28.7571 2.01371 28.8817C2.03592 28.159 2.0962 27.0407 2.19137 26.262C2.78145 20.9572 7.00246 16.9093 12.4195 16.3813L12.4243 16.3844ZM1.48708 28.8879C1.46804 28.8863 1.46963 28.8879 1.48708 28.8879V28.8879Z" fill="#B3A7D9"/>
<path d="M18.5396 19.3639C18.4444 19.3779 18.1779 19.4293 18.0875 19.4449C17.9923 19.4667 17.8749 19.4714 17.8099 19.5539C17.6576 27.1233 23.8218 30.9889 31.0329 30.4594L31.7974 30.3426L31.7514 29.6246C31.3977 21.9914 26.0742 18.2145 18.5396 19.3639ZM19.3708 23.9849C18.6728 22.7094 18.4507 21.2609 18.1557 19.8607H18.1605C24.9369 19.0944 29.8828 22.1565 30.0795 28.9221C25.9426 29.3022 21.2473 27.902 19.3708 23.9849Z" fill="#B3A7D9"/>
<path d="M13.6254 11.1435C13.7206 11.1295 13.9871 11.0781 14.0775 11.0625C14.1727 11.0407 14.2901 11.036 14.3551 10.9535C14.5074 3.38414 8.34479 -0.481526 1.13371 0.0480178L0.369141 0.164829L0.415142 0.882828C0.768875 8.51604 6.09232 12.2929 13.627 11.1435H13.6254ZM12.7942 6.52247C13.4922 7.79804 13.7142 9.24494 14.0093 10.6467H14.0045C7.22808 11.4145 2.28374 8.3525 2.08705 1.58525C6.22398 1.20523 10.9209 2.6054 12.7958 6.52247H12.7942Z" fill="#B3A7D9"/>
<path d="M31.7262 15.5249C31.9639 14.9614 31.6914 14.3155 31.1176 14.0821C30.5437 13.8487 29.8859 14.1163 29.6482 14.6797C29.4105 15.2431 29.683 15.8891 30.2568 16.1225C30.8307 16.3559 31.4885 16.0883 31.7262 15.5249Z" fill="#B3A7D9"/>
<path d="M2.38574 15.7574C2.82495 15.3262 2.82495 14.627 2.38574 14.1958C1.94654 13.7645 1.23445 13.7645 0.795248 14.1958C0.356044 14.627 0.356045 15.3262 0.795248 15.7574C1.23445 16.1886 1.94654 16.1886 2.38574 15.7574Z" fill="#B3A7D9"/>
</svg>
